<?xml version="1.0" encoding="UTF-8"?>
<svg version="1.1" xmlns="http://www.w3.org/2000/svg" width="328" height="337">
<path d="M0 0 C0.97391241 3.168744 0.92717948 4.45876926 0.375 7.9375 C-1.08302995 19.77670321 4.33687482 30.6822175 11.1796875 39.953125 C15.1098702 44.90224395 19.08148647 49.06518917 24 53 C24.98783094 55.96349281 25.13410525 57.9712663 25.125 61.0625 C25.12886719 62.37927734 25.12886719 62.37927734 25.1328125 63.72265625 C25 66 25 66 24 68 C21.09740189 69.3749149 19.23861295 70 16 70 C16 70.66 16 71.32 16 72 C15.21625 72.7425 14.4325 73.485 13.625 74.25 C10.74207125 77.27021107 9.79769231 78.93176919 9 83 C9.19159153 88.93933755 10.3415748 94.19299945 14 99 C18.79563539 103.02652405 24.21875634 103.64107982 30.31640625 103.37890625 C35.20268764 102.68899461 39.27280734 101.25438809 42.34375 97.24609375 C43.59855714 95.16765956 43.59855714 95.16765956 45 92 C45.33 91.34 45.66 90.68 46 90 C46.45923036 83.22635223 45.5988425 78.22614931 41.1875 72.75 C38.62572009 70.70057607 35.96595941 69.38411439 33 68 C30.68317357 65.68317357 31.10923772 61.03062013 30.88671875 57.93359375 C31 55 31 55 32.9375 52.3125 C33.948125 51.549375 34.95875 50.78625 36 50 C44.68969749 41.16784846 50.31632914 31.82552798 54 20 C54.19980469 19.39285156 54.39960937 18.78570312 54.60546875 18.16015625 C55.2030574 14.88821047 55.06302015 11.6242091 55 8.3125 C54.95427025 5.86824482 54.95279652 3.44573046 55 1 C56 0 56 0 58.1171875 -0.16015625 C66.58267376 0.13961309 71.81329436 3.34472936 78 9 C82 13.55986509 82 13.55986509 82 16 C82.66 16 83.32 16 84 16 C88 22.75 88 22.75 88 25 C88.66 25 89.32 25 90 25 C90.27972656 25.53367187 90.55945313 26.06734375 90.84765625 26.6171875 C93.64032477 31.80742031 96.75048334 36.60208624 100.17578125 41.39453125 C102.68170991 44.97366276 104.99600539 48.6631427 107.32421875 52.359375 C108.80987645 54.70041137 110.32826785 57.01157613 111.875 59.3125 C116.01502874 65.4775428 119.9966 71.74579956 124 78 C124.65355469 76.96552734 124.65355469 76.96552734 125.3203125 75.91015625 C127.20575487 72.9350751 129.1018775 69.96700512 131 67 C131.57105469 66.09765625 132.14210937 65.1953125 132.73046875 64.265625 C133.51357422 63.05132812 133.51357422 63.05132812 134.3125 61.8125 C134.78300781 61.07644531 135.25351563 60.34039062 135.73828125 59.58203125 C136.15464844 59.05996094 136.57101563 58.53789062 137 58 C137.66 58 138.32 58 139 58 C139.12004395 57.41734375 139.24008789 56.8346875 139.36376953 56.234375 C140.02355707 53.91727004 140.89554172 52.28030317 142.1796875 50.25 C142.83130859 49.21359375 142.83130859 49.21359375 143.49609375 48.15625 C143.95113281 47.4446875 144.40617188 46.733125 144.875 46 C145.32230469 45.2884375 145.76960937 44.576875 146.23046875 43.84375 C151.00728535 36.29102522 151.00728535 36.29102522 153 34 C153.66 34 154.32 34 155 34 C155.25136719 33.4225 155.50273437 32.845 155.76171875 32.25 C160.64780932 23.37180388 170.75750249 16.60323454 180 13 C185.91308683 11.81003718 191.80526467 11.81659491 197.8125 11.8125 C198.74642578 11.80025391 199.68035156 11.78800781 200.64257812 11.77539062 C213.26625891 11.74910954 224.80610661 14.4205285 234.28515625 23.23046875 C248.64799316 38.05134601 253.48771034 55.79845327 253.38818359 76.0769043 C253.39226154 77.43204162 253.3976102 78.78717561 253.40411377 80.14230347 C253.41764421 83.78060376 253.41254976 87.41864529 253.40297651 91.05694938 C253.39530967 94.8865902 253.40244438 98.71621084 253.40713501 102.54585266 C253.41257034 108.97014288 253.40545763 115.39432913 253.39111328 121.81860352 C253.37477011 129.22312565 253.38009626 136.62740011 253.3965925 144.03191632 C253.41024611 150.41871518 253.41210879 156.80543989 253.40427649 163.19224864 C253.39962387 166.99414521 253.39890853 170.79592567 253.40888596 174.59781456 C253.41761091 178.17097213 253.41143412 181.74381282 253.39420319 185.31693649 C253.38840584 187.23764878 253.39720494 189.15838817 253.40658569 191.0790863 C253.32714932 202.014259 251.39347022 211.61001857 244 220 C241.17816064 222.39333783 238.2528351 224.24717694 235 226 C234.40832031 226.3403125 233.81664062 226.680625 233.20703125 227.03125 C226.00167711 230.46691555 215.51043391 230.34093981 207.96484375 228.09765625 C205.88267084 227.17041285 203.93373371 226.20321209 202 225 C202 224.34 202 223.68 202 223 C201.01 223 200.02 223 199 223 C197.09765625 221.19921875 197.09765625 221.19921875 195.0625 218.6875 C194.39347656 217.88699219 193.72445312 217.08648437 193.03515625 216.26171875 C185.82436586 204.70507772 186.41182933 193.0267715 186.42578125 179.84765625 C186.4133211 177.69818491 186.39898274 175.54872371 186.38285828 173.39927673 C186.34499466 167.77027251 186.32967128 162.1414439 186.32006836 156.5123291 C186.30025088 147.4790748 186.24347884 138.44595306 186.19130516 129.41283989 C186.17597248 126.26195474 186.16877253 123.11113619 186.16316223 119.96022034 C186.15614757 118.03475919 186.14904677 116.10929835 186.1418457 114.18383789 C186.14263878 112.87079933 186.14263878 112.87079933 186.14344788 111.53123474 C186.13743561 110.32257248 186.13743561 110.32257248 186.13130188 109.0894928 C186.12941597 108.04348703 186.12941597 108.04348703 186.12749195 106.97634983 C185.99246288 104.88316136 185.56817381 103.01532947 185 101 C181.89149579 101.30444113 180.37836938 101.61763938 178.1484375 103.87109375 C177.56320313 104.71800781 176.97796875 105.56492187 176.375 106.4375 C175.35792969 107.90896484 175.35792969 107.90896484 174.3203125 109.41015625 C171.03023848 114.42614707 167.92370255 119.56173656 164.85693359 124.71655273 C162.46205974 128.72384712 159.98069789 132.39212707 157 136 C156.27880408 137.14614301 155.58535602 138.31086168 154.9375 139.5 C154.60878906 140.08910156 154.28007812 140.67820313 153.94140625 141.28515625 C153.63074219 141.85105469 153.32007813 142.41695312 153 143 C151.375 145.9375 151.375 145.9375 150 148 C149.34 148 148.68 148 148 148 C147.73703125 148.72445312 147.4740625 149.44890625 147.203125 150.1953125 C145.17181797 154.93063213 142.05402904 158.87641649 139 163 C138.51273438 163.680625 138.02546875 164.36125 137.5234375 165.0625 C132.90875053 171.04354679 127.47302953 173.50385292 120.0625 174.5625 C114.94453029 174.29421933 110.16286536 171.88073529 106 169 C105.67 168.01 105.34 167.02 105 166 C104.01 165.67 103.02 165.34 102 165 C100.37479605 162.99011475 98.89723385 160.99995786 97.4375 158.875 C97.00131348 158.25189941 96.56512695 157.62879883 96.11572266 156.98681641 C91.69367599 150.63676373 87.40766147 144.19450803 83.14648438 137.73583984 C81.4809752 135.21416816 79.80292567 132.70092172 78.125 130.1875 C75.71100732 126.57145769 73.30487817 122.95047411 70.90625 119.32421875 C70.36468262 118.50735596 69.82311523 117.69049316 69.26513672 116.84887695 C68.18677461 115.22234476 67.11022291 113.59461058 66.03564453 111.96557617 C65.54177246 111.22154541 65.04790039 110.47751465 64.5390625 109.7109375 C63.87704834 108.71006104 63.87704834 108.71006104 63.20166016 107.68896484 C61.97100082 105.86017719 61.97100082 105.86017719 60 104 C57.41645782 103.83312552 57.41645782 103.83312552 55 104 C53.38689853 107.22620293 53.85585637 110.75388054 53.8581543 114.29833984 C53.85294266 115.58659668 53.85294266 115.58659668 53.84762573 116.90087891 C53.84026086 118.77134933 53.83491938 120.64182854 53.83133507 122.51231003 C53.82416919 125.48147389 53.8084979 128.45047252 53.78999329 131.41958618 C53.73755649 139.86384701 53.68962965 148.30802159 53.67407227 156.75244141 C53.6639351 161.91614154 53.63445728 167.07943195 53.59275246 172.24296951 C53.5805096 174.20352693 53.57530881 176.16414243 53.57755089 178.12473679 C53.59082819 193.53717241 52.14694884 206.49522635 41.75 218.625 C30.92756697 227.97164671 19.40476482 232.40358177 5 232 C-3.17280713 230.94376857 -10.68846134 228.81051089 -18 225 C-18 224.34 -18 223.68 -18 223 C-18.8353125 222.6596875 -18.8353125 222.6596875 -19.6875 222.3125 C-22.66159588 220.62449964 -24.72008865 218.53323483 -27 216 C-27 215.34 -27 214.68 -27 214 C-27.66 214 -28.32 214 -29 214 C-29.99011443 211.81690366 -30.96705568 209.62932734 -31.9375 207.4375 C-32.21529297 206.82841797 -32.49308594 206.21933594 -32.77929688 205.59179688 C-33.04677734 204.98271484 -33.31425781 204.37363281 -33.58984375 203.74609375 C-33.83597412 203.19622803 -34.08210449 202.6463623 -34.33569336 202.07983398 C-36.38478042 195.66448204 -36.2982758 188.67647132 -36.55200195 182.00708008 C-36.59404157 180.9183727 -36.63608118 179.82966532 -36.67939472 178.7079668 C-37.1456581 165.47616231 -37.16474409 152.24214202 -37.16725707 139.00376105 C-37.16797968 136.85421297 -37.17013566 134.70467085 -37.17275429 132.55512428 C-37.1819132 125.01989983 -37.18609959 117.48469273 -37.18530273 109.94946289 C-37.18469839 102.97649104 -37.19534393 96.00359564 -37.2110464 89.03064317 C-37.22416587 82.98498735 -37.22948507 76.93935651 -37.22884732 70.89368659 C-37.22859446 67.30765888 -37.23133014 63.7217001 -37.24202538 60.13568687 C-37.25360306 56.14859169 -37.24893262 52.16166804 -37.24291992 48.17456055 C-37.24853943 47.01333176 -37.25415894 45.85210297 -37.25994873 44.65568542 C-37.20729827 30.85507189 -35.56391384 19.66998805 -25.75 9.375 C-23 7 -23 7 -21 7 C-21 6.34 -21 5.68 -21 5 C-13.83877114 1.57852399 -8.0278715 -0.1911398 0 0 Z " fill="#25A8AA" transform="translate(58,96)"/>
<path d="M0 0 C0.97391241 3.168744 0.92717948 4.45876926 0.375 7.9375 C-1.08302995 19.77670321 4.33687482 30.6822175 11.1796875 39.953125 C15.1098702 44.90224395 19.08148647 49.06518917 24 53 C24.98783094 55.96349281 25.13410525 57.9712663 25.125 61.0625 C25.12886719 62.37927734 25.12886719 62.37927734 25.1328125 63.72265625 C25 66 25 66 24 68 C21.09740189 69.3749149 19.23861295 70 16 70 C16 70.66 16 71.32 16 72 C15.21625 72.7425 14.4325 73.485 13.625 74.25 C10.74207125 77.27021107 9.79769231 78.93176919 9 83 C9.19159153 88.93933755 10.3415748 94.19299945 14 99 C18.79563539 103.02652405 24.21875634 103.64107982 30.31640625 103.37890625 C35.20268764 102.68899461 39.27280734 101.25438809 42.34375 97.24609375 C43.59855714 95.16765956 43.59855714 95.16765956 45 92 C45.33 91.34 45.66 90.68 46 90 C46.45923036 83.22635223 45.5988425 78.22614931 41.1875 72.75 C38.62572009 70.70057607 35.96595941 69.38411439 33 68 C30.68317357 65.68317357 31.10923772 61.03062013 30.88671875 57.93359375 C31 55 31 55 32.9375 52.3125 C33.948125 51.549375 34.95875 50.78625 36 50 C44.68969749 41.16784846 50.31632914 31.82552798 54 20 C54.19980469 19.39285156 54.39960937 18.78570312 54.60546875 18.16015625 C55.2030574 14.88821047 55.06302015 11.6242091 55 8.3125 C54.95427025 5.86824482 54.95279652 3.44573046 55 1 C56 0 56 0 58.1171875 -0.16015625 C66.58267376 0.13961309 71.81329436 3.34472936 78 9 C82 13.55986509 82 13.55986509 82 16 C82.66 16 83.32 16 84 16 C88 22.75 88 22.75 88 25 C88.66 25 89.32 25 90 25 C90.27972656 25.53367187 90.55945313 26.06734375 90.84765625 26.6171875 C93.63674591 31.80076893 96.74503803 36.58877326 100.16015625 41.37890625 C108.54082794 53.31824957 108.54082794 53.31824957 111 60 C110.01 60.99 110.01 60.99 109 62 C108.4121875 61.0409375 108.4121875 61.0409375 107.8125 60.0625 C106.18354094 57.75053485 106.18354094 57.75053485 103.5625 57.6875 C101 57 101 57 99.26171875 54.09765625 C98.91810303 53.46255127 98.5744873 52.82744629 98.22045898 52.1730957 C95.80945654 47.88017057 92.98979648 43.83771774 90.25 39.75 C89.62673828 38.81994141 89.00347656 37.88988281 88.36132812 36.93164062 C79.74348527 22.10002559 79.74348527 22.10002559 66.625 12.1875 C66.08875 12.125625 65.5525 12.06375 65 12 C65.103125 13.010625 65.20625 14.02125 65.3125 15.0625 C65.25960487 30.00537331 55.87761865 44.61598103 45.8203125 54.84375 C44.00664418 56.99212964 43.38682813 58.25476814 43 61 C43.74765625 61.54914063 44.4953125 62.09828125 45.265625 62.6640625 C48.06720251 65.05741014 49.7862108 67.27290821 51.75 70.375 C52.63945312 71.74785156 52.63945312 71.74785156 53.546875 73.1484375 C56.61726287 79.17366101 57.32137107 87.67481445 55.328125 94.19921875 C54.62553886 95.83306293 53.82267518 97.42320591 53 99 C53.66 99.66 54.32 100.32 55 101 C54.70603777 102.67405947 54.36116131 104.33914137 54 106 C53.903704 108.88757067 53.85625727 111.75153184 53.8581543 114.63891602 C53.85294266 115.92782997 53.85294266 115.92782997 53.84762573 117.24278259 C53.8402879 119.10501526 53.83493203 120.96725655 53.83133507 122.8295002 C53.82413992 125.78630175 53.80844869 128.74294019 53.78999329 131.69969177 C53.73768072 140.10551663 53.68960803 148.51125233 53.67407227 156.91723633 C53.6639365 162.06494403 53.63446921 167.21224054 53.59275246 172.35978508 C53.58051511 174.31196913 53.57530778 176.26421145 53.57755089 178.21643257 C53.59086774 193.59466014 52.12211118 206.52420362 41.75 218.625 C30.92756697 227.97164671 19.40476482 232.40358177 5 232 C-3.17280713 230.94376857 -10.68846134 228.81051089 -18 225 C-18 224.34 -18 223.68 -18 223 C-18.8353125 222.6596875 -18.8353125 222.6596875 -19.6875 222.3125 C-22.66159588 220.62449964 -24.72008865 218.53323483 -27 216 C-27 215.34 -27 214.68 -27 214 C-27.66 214 -28.32 214 -29 214 C-29.99011443 211.81690366 -30.96705568 209.62932734 -31.9375 207.4375 C-32.21529297 206.82841797 -32.49308594 206.21933594 -32.77929688 205.59179688 C-33.04677734 204.98271484 -33.31425781 204.37363281 -33.58984375 203.74609375 C-33.83597412 203.19622803 -34.08210449 202.6463623 -34.33569336 202.07983398 C-36.38478042 195.66448204 -36.2982758 188.67647132 -36.55200195 182.00708008 C-36.59404157 180.9183727 -36.63608118 179.82966532 -36.67939472 178.7079668 C-37.1456581 165.47616231 -37.16474409 152.24214202 -37.16725707 139.00376105 C-37.16797968 136.85421297 -37.17013566 134.70467085 -37.17275429 132.55512428 C-37.1819132 125.01989983 -37.18609959 117.48469273 -37.18530273 109.94946289 C-37.18469839 102.97649104 -37.19534393 96.00359564 -37.2110464 89.03064317 C-37.22416587 82.98498735 -37.22948507 76.93935651 -37.22884732 70.89368659 C-37.22859446 67.30765888 -37.23133014 63.7217001 -37.24202538 60.13568687 C-37.25360306 56.14859169 -37.24893262 52.16166804 -37.24291992 48.17456055 C-37.24853943 47.01333176 -37.25415894 45.85210297 -37.25994873 44.65568542 C-37.20729827 30.85507189 -35.56391384 19.66998805 -25.75 9.375 C-23 7 -23 7 -21 7 C-21 6.34 -21 5.68 -21 5 C-13.83877114 1.57852399 -8.0278715 -0.1911398 0 0 Z " fill="#288F95" transform="translate(58,96)"/>
<path d="M0 0 C0 0.66 0 1.32 0 2 C0.99 2 1.98 2 3 2 C5.3125 4.0625 5.3125 4.0625 8 7 C8.75023438 7.74443359 8.75023438 7.74443359 9.515625 8.50390625 C16.45040916 15.77141995 18.62682224 24.88996629 19.09375 34.73046875 C18.79540152 45.13537202 15.28441976 53.48582286 8.11328125 60.96875 C-1.12294648 69.533582 -10.07329724 71.4628004 -22.3828125 71.2890625 C-29.68788394 70.99423899 -36.4286365 68.84632305 -42 64 C-42 63.34 -42 62.68 -42 62 C-42.99 61.67 -43.98 61.34 -45 61 C-45 60.34 -45 59.68 -45 59 C-45.99 58.67 -46.98 58.34 -48 58 C-49.5703125 55.453125 -49.5703125 55.453125 -51.125 52.25 C-51.64320312 51.20328125 -52.16140625 50.1565625 -52.6953125 49.078125 C-56.51753532 40.06042566 -56.06377672 29.19133016 -53 20 C-49.0061885 11.15656025 -42.04180563 2.93191195 -33 -1 C-21.31340456 -5.1855082 -11.53232874 -3.9775277 0 0 Z " fill="#2A8B91" transform="translate(105,14)"/>
<path d="M0 0 C1.42655647 0.89005257 2.82765484 1.8235217 4.1875 2.8125 C5.26 3.534375 6.3325 4.25625 7.4375 5 C14.62865587 12.35459123 18.1197053 20.51004245 18.21484375 30.7578125 C17.69166765 41.24816411 14.67468861 49.19061512 7.3984375 56.83203125 C1.99496761 61.67224191 -3.50524323 64.42103982 -10.8125 64.8125 C-11.51117188 64.85117188 -12.20984375 64.88984375 -12.9296875 64.9296875 C-20.87723153 65.17718887 -27.84633792 63.74212989 -34.8125 59.8125 C-34.8125 59.1525 -34.8125 58.4925 -34.8125 57.8125 C-35.8025 57.8125 -36.7925 57.8125 -37.8125 57.8125 C-45.40682268 50.54836526 -49.05076734 41.79725204 -49.4375 31.3125 C-49.10945695 21.91503141 -46.14459113 13.82845697 -39.8125 6.8125 C-39.1525 6.8125 -38.4925 6.8125 -37.8125 6.8125 C-37.4825 5.8225 -37.1525 4.8325 -36.8125 3.8125 C-26.90227651 -3.93103965 -11.3711335 -5.40171848 0 0 Z " fill="#2CB4B1" transform="translate(271.8125,33.1875)"/>
<path d="M0 0 C1.0209375 -0.01224609 2.041875 -0.02449219 3.09375 -0.03710938 C9.00897185 -0.04851404 14.28837077 0.14250986 19.875 2.1875 C23.23133082 6.25042678 22.1949354 12.21459103 21.875 17.1875 C20.08830437 28.44368248 13.90139205 40.09197095 4.875 47.1875 C2.09765625 47.453125 2.09765625 47.453125 -0.125 47.1875 C-0.455 46.1975 -0.785 45.2075 -1.125 44.1875 C-2.61 43.6925 -2.61 43.6925 -4.125 43.1875 C-4.125 42.5275 -4.125 41.8675 -4.125 41.1875 C-5.115 40.8575 -6.105 40.5275 -7.125 40.1875 C-7.125 39.5275 -7.125 38.8675 -7.125 38.1875 C-7.785 38.1875 -8.445 38.1875 -9.125 38.1875 C-14.98379527 27.91111044 -20.06334588 18.45089618 -18.125 6.1875 C-12.88178479 -0.71146739 -8.03594721 0.00496046 0 0 Z " fill="#289298" transform="translate(84.125,94.8125)"/>
<path d="M0 0 C2.941381 2.46115553 4.57817389 4.21508291 5.47265625 8 C5.7723979 12.05804076 5.15239638 13.81634282 2.5625 16.9375 C1.716875 17.618125 0.87125 18.29875 0 19 C-0.33 19.33 -0.66 19.66 -1 20 C-2.85287502 20.07226502 -4.70833878 20.0838122 -6.5625 20.0625 C-7.57441406 20.05347656 -8.58632812 20.04445312 -9.62890625 20.03515625 C-10.80259766 20.01775391 -10.80259766 20.01775391 -12 20 C-12 19.34 -12 18.68 -12 18 C-12.99 17.67 -13.98 17.34 -15 17 C-17.47631221 13.28553169 -17.53805227 10.30441814 -17 6 C-15.70210808 2.85773535 -14.71805539 1.46462408 -11.875 -0.375 C-7.71188236 -1.28002557 -4.09276935 -1.250774 0 0 Z " fill="#2A868C" transform="translate(92,172)"/>
<path d="M0 0 C0.97582031 -0.00386719 1.95164062 -0.00773437 2.95703125 -0.01171875 C4.37435547 -0.00978516 4.37435547 -0.00978516 5.8203125 -0.0078125 C7.09672607 -0.00612061 7.09672607 -0.00612061 8.39892578 -0.00439453 C10.97422685 0.13018539 13.36206542 0.55926668 15.875 1.125 C15.875 1.785 15.875 2.445 15.875 3.125 C15.24110352 3.11452637 14.60720703 3.10405273 13.95410156 3.09326172 C-12.62365055 2.34345007 -12.62365055 2.34345007 -35.125 15.125 C-37.03220143 17.2283225 -38.77505904 19.43342642 -40.5 21.6875 C-41.20346558 22.59363037 -41.20346558 22.59363037 -41.92114258 23.51806641 C-46.28055922 29.1975515 -50.26883544 35.09214657 -54.125 41.125 C-54.86328125 39.50390625 -54.86328125 39.50390625 -55.125 37.125 C-53.54296875 34.21484375 -53.54296875 34.21484375 -51.3125 31.0625 C-50.58417969 30.01964844 -49.85585937 28.97679687 -49.10546875 27.90234375 C-48.45191406 26.98582031 -47.79835937 26.06929687 -47.125 25.125 C-46.465 24.135 -45.805 23.145 -45.125 22.125 C-44.465 22.125 -43.805 22.125 -43.125 22.125 C-42.87363281 21.5475 -42.62226563 20.97 -42.36328125 20.375 C-37.47719068 11.49680388 -27.36749751 4.72823454 -18.125 1.125 C-12.1096745 -0.10062257 -6.11165224 -0.02441406 0 0 Z " fill="#3BBBB9" transform="translate(256.125,107.875)"/>
<path d="M0 0 C2.18743358 4.37486716 2.27069932 7.5194108 2.22705078 12.25683594 C2.22734283 13.08647354 2.22763489 13.91611115 2.22793579 14.77088928 C2.2265442 17.50882482 2.21099104 20.24648709 2.1953125 22.984375 C2.19158176 24.88437756 2.18873508 26.78438204 2.18673706 28.68438721 C2.17910539 33.68212202 2.15946085 38.67974036 2.1373291 43.6774292 C2.11686067 48.77842636 2.10773321 53.87944235 2.09765625 58.98046875 C2.07621457 68.98703031 2.04208419 78.99350546 2 89 C1.34 89 0.68 89 0 89 C-0.33 90.32 -0.66 91.64 -1 93 C-0.67 62.31 -0.34 31.62 0 0 Z " fill="#0E8489" transform="translate(109,200)"/>
<path d="M0 0 C0 0.66 0 1.32 0 2 C0.99 2 1.98 2 3 2 C5.5625 4.375 5.5625 4.375 8 7 C8.66 7.66 9.32 8.32 10 9 C9.67 9.99 9.34 10.98 9 12 C8.21689453 11.20335937 8.21689453 11.20335937 7.41796875 10.390625 C-0.13861024 3.1384266 -7.14898648 -0.15570145 -17.6875 -0.375 C-25.6299771 -0.09268446 -31.52629241 1.07435292 -38 6 C-39.5159375 7.1446875 -39.5159375 7.1446875 -41.0625 8.3125 C-44.34788079 11.31827391 -46.53701639 14.30552459 -49 18 C-49.66 17.67 -50.32 17.34 -51 17 C-47.27196524 8.77261295 -40.30473795 2.2693192 -32.0625 -1.1875 C-20.94983828 -5.338406 -11.04343635 -3.80890755 0 0 Z " fill="#3C989C" transform="translate(105,14)"/>
<path d="M0 0 C0.495 0.99 0.495 0.99 1 2 C-8.83378722 16.98343319 -8.83378722 16.98343319 -18 19 C-24.95266381 19.81114411 -30.22103491 17.9990889 -36 14 C-36.33 13.01 -36.66 12.02 -37 11 C-37.99 10.67 -38.98 10.34 -40 10 C-41.38671875 8.44140625 -41.38671875 8.44140625 -42.6875 6.5625 C-43.34298828 5.63630859 -43.34298828 5.63630859 -44.01171875 4.69140625 C-45 3 -45 3 -45 1 C-41.34683329 2.24976756 -40.21934164 2.67098753 -38 6 C-38 6.99 -38 7.98 -38 9 C-37.319375 9.2475 -36.63875 9.495 -35.9375 9.75 C-33 11 -33 11 -29.6875 13.125 C-25.58163475 15.508187 -22.71117499 15.52346389 -18 15 C-11.94914235 12.74575891 -8.31762805 8.63344561 -4.3125 3.75 C-2 1 -2 1 0 0 Z " fill="#1D989B" transform="translate(200,251)"/>
<path d="M0 0 C2.941381 2.46115553 4.57817389 4.21508291 5.47265625 8 C5.7723979 12.05804076 5.15239638 13.81634282 2.5625 16.9375 C1.716875 17.618125 0.87125 18.29875 0 19 C-0.33 19.33 -0.66 19.66 -1 20 C-2.85287502 20.07226502 -4.70833878 20.0838122 -6.5625 20.0625 C-7.57441406 20.05347656 -8.58632812 20.04445312 -9.62890625 20.03515625 C-10.80259766 20.01775391 -10.80259766 20.01775391 -12 20 C-12 19.34 -12 18.68 -12 18 C-12.99 17.67 -13.98 17.34 -15 17 C-17.47631221 13.28553169 -17.53805227 10.30441814 -17 6 C-15.70210808 2.85773535 -14.71805539 1.46462408 -11.875 -0.375 C-7.71188236 -1.28002557 -4.09276935 -1.250774 0 0 Z M-14 4 C-15.5635348 7.12706959 -15.39958487 10.57982443 -15 14 C-13.3863325 17.13388124 -13.3863325 17.13388124 -10.9765625 17.546875 C-10.20054688 17.61390625 -9.42453125 17.6809375 -8.625 17.75 C-7.85414062 17.82734375 -7.08328125 17.9046875 -6.2890625 17.984375 C-3.95653345 18.0002967 -2.19421505 17.78465506 0 17 C2.36232372 14.14891965 3.02700608 12.66164889 2.875 8.9375 C1.70851627 4.9757028 1.70851627 4.9757028 -1 2 C-6.41637659 0.68958631 -9.48758317 0.30802259 -14 4 Z " fill="#4A9599" transform="translate(92,172)"/>
<path d="M0 0 C0.495 1.98 0.495 1.98 1 4 C-4.30777781 7.26169566 -8.64890349 9.65976269 -15 10 C-15.69867188 10.03867188 -16.39734375 10.07734375 -17.1171875 10.1171875 C-25.06473153 10.36468887 -32.03383792 8.92962989 -39 5 C-39 4.34 -39 3.68 -39 3 C-36.07160844 3.40861278 -33.48326722 3.77754366 -30.78515625 5.01953125 C-27.21434965 6.27657537 -23.86277528 6.32996624 -20.125 6.3125 C-19.44308594 6.32861328 -18.76117188 6.34472656 -18.05859375 6.36132812 C-11.02051167 6.36803106 -5.91585952 3.76463788 0 0 Z " fill="#19ABAB" transform="translate(276,88)"/>
<path d="M0 0 C0.57105469 0.2165625 1.14210938 0.433125 1.73046875 0.65625 C11.9599728 4.16908446 21.06506227 4.15461032 31 0 C33.21484375 0.41015625 33.21484375 0.41015625 35 1 C30.22561309 6.11848687 24.93317096 7.14714224 18.1237793 7.4074707 C11.16472954 7.50586858 5.9105362 6.94035747 0 3 C0 2.01 0 1.02 0 0 Z " fill="#1F9EA1" transform="translate(261,318)"/>
<path d="M0 0 C1.0209375 -0.01224609 2.041875 -0.02449219 3.09375 -0.03710938 C9.05128759 -0.04859563 14.16908847 0.45657 19.875 2.1875 C20.37 5.1575 20.37 5.1575 20.875 8.1875 C20.34720947 7.54224365 19.81941895 6.8969873 19.27563477 6.23217773 C16.20623722 3.61789883 14.45870468 3.61380315 10.46484375 3.47265625 C8.60956055 3.40401367 8.60956055 3.40401367 6.71679688 3.33398438 C5.42837891 3.30626953 4.13996094 3.27855469 2.8125 3.25 C0.87407227 3.16782227 0.87407227 3.16782227 -1.10351562 3.08398438 C-7.37706247 2.47385382 -7.37706247 2.47385382 -12.97167969 4.55957031 C-14.43542585 6.62567094 -14.84510836 8.39422897 -15.3125 10.875 C-15.47105469 11.68324219 -15.62960938 12.49148437 -15.79296875 13.32421875 C-15.90253906 13.93910156 -16.01210937 14.55398437 -16.125 15.1875 C-16.455 15.1875 -16.785 15.1875 -17.125 15.1875 C-17.75305304 6.04583915 -17.75305304 6.04583915 -15.25 2.625 C-10.37941227 -0.66980935 -5.74118766 0.00354394 0 0 Z " fill="#40A4A9" transform="translate(84.125,94.8125)"/>
<path d="M0 0 C0.70125 0.07863281 1.4025 0.15726562 2.125 0.23828125 C4 0.6875 4 0.6875 6 2.6875 C3.69 2.6875 1.38 2.6875 -1 2.6875 C-1.09796875 3.71488281 -1.1959375 4.74226563 -1.296875 5.80078125 C-2.16246323 14.08698529 -3.12365596 22.16194145 -7 29.6875 C-7.66 30.0175 -8.32 30.3475 -9 30.6875 C-10.49575348 26.33621715 -9.50324475 23.69749346 -7.7890625 19.65234375 C-6.05366917 15.33104253 -5.89086484 11.60101599 -5.9375 6.9375 C-5.94652344 5.76703125 -5.95554687 4.5965625 -5.96484375 3.390625 C-5.97644531 2.49859375 -5.98804687 1.6065625 -6 0.6875 C-3.63106495 -0.49696753 -2.5933174 -0.31939755 0 0 Z " fill="#2B7E87" transform="translate(119,98.3125)"/>
<path d="M0 0 C0.99 0.33 1.98 0.66 3 1 C0.03 1.99 -2.94 2.98 -6 4 C-6 4.66 -6 5.32 -6 6 C-15.8860997 8.89764991 -26.27230743 8.47417592 -36 5 C-35.67 4.01 -35.34 3.02 -35 2 C-34.154375 2.144375 -33.30875 2.28875 -32.4375 2.4375 C-21.27778952 4.26363444 -10.52883157 5.26441579 0 0 Z " fill="#1E8285" transform="translate(85,320)"/>
<path d="M0 0 C4.23138967 3.75101452 7.05940976 8.3671495 10.125 13.0625 C10.66253906 13.87783203 11.20007813 14.69316406 11.75390625 15.53320312 C12.74968556 17.04425477 13.74355794 18.55656614 14.73486328 20.07055664 C15.81558484 21.71875087 16.90673344 23.36010015 18 25 C18.125 27.6875 18.125 27.6875 18 30 C14.83340881 27.03747802 12.48810852 23.94257634 10.125 20.3125 C7.19588702 15.81141499 7.19588702 15.81141499 4.1484375 11.390625 C3.60445312 10.62234375 3.06046875 9.8540625 2.5 9.0625 C2.0153125 8.39347656 1.530625 7.72445312 1.03125 7.03515625 C-0.22690667 4.55220312 -0.19108169 2.74679935 0 0 Z " fill="#22999C" transform="translate(132,215)"/>
<path d="M0 0 C4.41176747 2.94117831 4.36043262 6.31236107 5.41763306 11.33773804 C6.33163548 17.08551673 6.3706426 22.71132054 6.29296875 28.51953125 C6.28872391 29.74411545 6.28447906 30.96869965 6.28010559 32.23039246 C6.26348895 36.09133125 6.22586887 39.95172249 6.1875 43.8125 C6.17243118 46.45116427 6.15874665 49.08983682 6.14648438 51.72851562 C6.11364139 58.15252643 6.06361507 64.57622408 6 71 C5.67 71 5.34 71 5 71 C4.99413376 70.40912598 4.98826752 69.81825195 4.98222351 69.20947266 C4.91756368 62.9782225 4.83297238 56.74745479 4.73754883 50.51660156 C4.70459156 48.20091166 4.67647206 45.88514706 4.65356445 43.56933594 C4.51954957 30.37314719 4.05533159 17.87144042 1 5 C0.66042545 3.33459374 0.32456266 1.66839683 0 0 Z " fill="#2FB4B2" transform="translate(305,143)"/>
<path d="M0 0 C0 0.99 0 1.98 0 3 C-0.94875 2.9175 -1.8975 2.835 -2.875 2.75 C-11.17974524 2.78355453 -19.10636379 7.4098987 -25 13 C-26.70247914 15.09594098 -28.27005932 17.21846837 -29.7734375 19.4609375 C-30.17820312 19.96882813 -30.58296875 20.47671875 -31 21 C-31.66 21 -32.32 21 -33 21 C-31.51129888 15.70684048 -27.91398865 11.73092904 -24 8 C-23.01 7.67 -22.02 7.34 -21 7 C-21 6.34 -21 5.68 -21 5 C-13.83877114 1.57852399 -8.0278715 -0.1911398 0 0 Z " fill="#3E9194" transform="translate(58,96)"/>
<path d="M0 0 C0.69140625 1.6640625 0.69140625 1.6640625 1 4 C-2.0403077 10.43029934 -6.45255876 16.5379277 -12 21 C-14.875 21.375 -14.875 21.375 -17 21 C-17.33 20.01 -17.66 19.02 -18 18 C-18.99 17.67 -19.98 17.34 -21 17 C-21 16.34 -21 15.68 -21 15 C-21.66 14.67 -22.32 14.34 -23 14 C-22.34 13.34 -21.68 12.68 -21 12 C-20.4225 12.639375 -19.845 13.27875 -19.25 13.9375 C-17.02015684 15.98152289 -16.00350106 16.90311287 -13 17 C-11.35405861 15.60411246 -11.35405861 15.60411246 -10 14 C-9.34 14 -8.68 14 -8 14 C-6.47700477 11.06279492 -5.19899698 8.0831351 -4 5 C-3.34 5 -2.68 5 -2 5 C-1.34 3.35 -0.68 1.7 0 0 Z " fill="#369093" transform="translate(101,121)"/>
<path d="M0 0 C0.33 0 0.66 0 1 0 C0.74430661 7.03156831 -1.27278535 11.73489659 -6 17 C-11.91623641 21.91482446 -18.65870914 21.44047745 -26 21 C-26 20.67 -26 20.34 -26 20 C-25.04738281 19.81824219 -24.09476562 19.63648438 -23.11328125 19.44921875 C-21.85902344 19.19785156 -20.60476562 18.94648438 -19.3125 18.6875 C-17.45044922 18.32205078 -17.45044922 18.32205078 -15.55078125 17.94921875 C-10.4194727 16.5774828 -7.79598408 15.21738741 -4.875 10.75 C-3.04069906 7.25289781 -1.49168091 3.65461823 0 0 Z " fill="#3B9398" transform="translate(106,181)"/>
<path d="M0 0 C0 0.66 0 1.32 0 2 C-0.76183594 1.97679687 -1.52367187 1.95359375 -2.30859375 1.9296875 C-13.16880505 1.73987107 -22.16098404 2.61013911 -30.4375 10.25 C-30.953125 10.8275 -31.46875 11.405 -32 12 C-32.99 11.67 -33.98 11.34 -35 11 C-34.67 10.34 -34.34 9.68 -34 9 C-33.34 9 -32.68 9 -32 9 C-31.67 8.01 -31.34 7.02 -31 6 C-21.53255921 -1.39756305 -11.37297796 -0.6424067 0 0 Z " fill="#3AB6B4" transform="translate(266,31)"/>
<path d="M0 0 C0.99 0.66 1.98 1.32 3 2 C1.730447 2.64834654 0.45930294 3.29357815 -0.8125 3.9375 C-1.52019531 4.29714844 -2.22789063 4.65679687 -2.95703125 5.02734375 C-7.71547924 7.29283811 -11.84444528 7.18344689 -17 7.1875 C-18.22976562 7.20586914 -18.22976562 7.20586914 -19.484375 7.22460938 C-20.27328125 7.22654297 -21.0621875 7.22847656 -21.875 7.23046875 C-22.59429687 7.23457764 -23.31359375 7.23868652 -24.0546875 7.24291992 C-26 7 -26 7 -29 5 C-25.37985052 3.83797671 -22.08960866 4.00034295 -18.3125 4.125 C-11.43200655 4.18957189 -6.11435042 3.05717521 0 0 Z " fill="#349396" transform="translate(104,78)"/>
<path d="M0 0 C7.17192776 0.89649097 13.46665997 4.39999172 18 10 C19.3125 13.3125 19.3125 13.3125 20 16 C18.87411986 15.04270084 17.7493285 14.08412105 16.625 13.125 C15.99851562 12.59132813 15.37203125 12.05765625 14.7265625 11.5078125 C13.44163349 10.38567993 12.20628025 9.20628025 11 8 C10.34 7.67 9.68 7.34 9 7 C9 6.34 9 5.68 9 5 C8.46375 4.87625 7.9275 4.7525 7.375 4.625 C4.5361714 3.87793984 1.77776798 2.94696636 -1 2 C-0.67 1.34 -0.34 0.68 0 0 Z " fill="#3BBAB8" transform="translate(274,110)"/>
<path d="M0 0 C2.97 0.495 2.97 0.495 6 1 C6.98783094 3.96349281 7.13410525 5.9712663 7.125 9.0625 C7.12757812 9.94035156 7.13015625 10.81820312 7.1328125 11.72265625 C7 14 7 14 6 16 C3.09740189 17.3749149 1.23861295 18 -2 18 C-2 17.34 -2 16.68 -2 16 C-0.35 15.34 1.3 14.68 3 14 C3.08114106 12.22992286 3.13925505 10.45877902 3.1875 8.6875 C3.22230469 7.70136719 3.25710937 6.71523437 3.29296875 5.69921875 C3.24278108 2.95425611 3.24278108 2.95425611 1.48828125 1.14453125 C0.99714844 0.76683594 0.50601563 0.38914063 0 0 Z " fill="#298892" transform="translate(76,148)"/>
<path d="M0 0 C0.33 0 0.66 0 1 0 C1.99 2.97 2.98 5.94 4 9 C5.4025 9.165 6.805 9.33 8.25 9.5 C9.03890625 9.5928125 9.8278125 9.685625 10.640625 9.78125 C13.26890397 10.06154619 13.26890397 10.06154619 17 10 C17.33 9.01 17.66 8.02 18 7 C20.0625 6.3125 20.0625 6.3125 22 6 C20.19587357 9.26460973 19.16605307 10.88929795 16 13 C13.30078125 13.1953125 13.30078125 13.1953125 10.3125 13.125 C8.82169922 13.09792969 8.82169922 13.09792969 7.30078125 13.0703125 C6.54152344 13.04710937 5.78226562 13.02390625 5 13 C5 12.34 5 11.68 5 11 C4.01 10.67 3.02 10.34 2 10 C-0.4294516 6.3558226 -0.16179575 4.28758728 0 0 Z " fill="#34949A" transform="translate(75,179)"/>
<path d="M0 0 C2 1 2 1 3.5 3.875 C7.05227497 10.39654297 12.78675795 15.78675795 18 21 C12.03243407 20.4421852 9.80673968 16.91222836 6.09375 12.57421875 C0 5.08208955 0 5.08208955 0 0 Z " fill="#388C90" transform="translate(63,128)"/>
<path d="M0 0 C0.99 0.33 1.98 0.66 3 1 C1.37660195 2.70884005 -0.29319053 4.37446717 -2 6 C-2.66 6 -3.32 6 -4 6 C-4 10.29 -4 14.58 -4 19 C-4.66 19 -5.32 19 -6 19 C-6.64756011 14.97999814 -7.13817581 11.07618628 -7 7 C-4.6875 3.875 -4.6875 3.875 -2 2 C-1.34 1.34 -0.68 0.68 0 0 Z " fill="#3B8A8E" transform="translate(96,144)"/>
<path d="M0 0 C0.33 0 0.66 0 1 0 C1.33 6.6 1.66 13.2 2 20 C1.01 20 0.02 20 -1 20 C-1.92373389 16.06119868 -2.16445401 12.35476634 -2.1875 8.3125 C-2.20167969 7.17425781 -2.21585938 6.03601562 -2.23046875 4.86328125 C-2 2 -2 2 0 0 Z " fill="#208488" transform="translate(52,40)"/>
<path d="M0 0 C0.33 0 0.66 0 1 0 C1.52993627 4.76073894 0.00748481 6.99002026 -2.8125 10.75 C-3.52019531 11.71421875 -4.22789062 12.6784375 -4.95703125 13.671875 C-7 16 -7 16 -10 17 C-8.5137853 12.80591769 -6.41721984 9.37332677 -3.9375 5.6875 C-3.22464844 4.61886719 -2.51179687 3.55023438 -1.77734375 2.44921875 C-1.19082031 1.64097656 -0.60429687 0.83273438 0 0 Z " fill="#19A5A7" transform="translate(227,208)"/>
<path d="M0 0 C0.85658203 0.30744141 0.85658203 0.30744141 1.73046875 0.62109375 C8.79586515 2.96873739 15.58380566 3.66290026 23 4 C19.74772853 5.96947298 17.68331814 6.15643349 13.9375 5.6875 C13.08027344 5.58824219 12.22304688 5.48898437 11.33984375 5.38671875 C9 5 9 5 6 4 C5.67 4.66 5.34 5.32 5 6 C2.5 4.6875 2.5 4.6875 0 3 C0 2.01 0 1.02 0 0 Z " fill="#15999B" transform="translate(261,318)"/>
<path d="M0 0 C2 3 2 3 1.6796875 5.33984375 C-1.05368154 14.16358361 -1.05368154 14.16358361 -5 17 C-5.99 17.33 -6.98 17.66 -8 18 C-6.55049545 14.2089881 -4.84827434 10.6125362 -3 7 C-2.34 7 -1.68 7 -1 7 C-0.67 4.69 -0.34 2.38 0 0 Z " fill="#1F9FA3" transform="translate(309,294)"/>
<path d="M0 0 C4.7545717 4.37921078 4.7545717 4.37921078 6.0625 7.6875 C6.80256311 10.16723474 6.80256311 10.16723474 9.125 11.3125 C9.74375 11.539375 10.3625 11.76625 11 12 C9.3125 12.8125 9.3125 12.8125 7 13 C3.55258116 10.14116486 0.92148583 7.05647008 -1 3 C-0.67 2.01 -0.34 1.02 0 0 Z " fill="#1E9B9E" transform="translate(249,304)"/>
<path d="M0 0 C3.6969041 0.24646027 5.54337041 0.60345325 8.375 3.0625 C8.91125 3.701875 9.4475 4.34125 10 5 C9.67 5.66 9.34 6.32 9 7 C5.125 6.125 5.125 6.125 4 5 C1.66702567 4.95907063 -0.66705225 4.95758277 -3 5 C-1.125 1.125 -1.125 1.125 0 0 Z " fill="#309EA4" transform="translate(114,195)"/>
<path d="M0 0 C0.515625 0.268125 1.03125 0.53625 1.5625 0.8125 C4.66401415 2.32349407 7.82262806 3.65572726 11 5 C11 5.66 11 6.32 11 7 C11.66 7.33 12.32 7.66 13 8 C8.12335991 8.34833144 5.22949995 7.41685712 1 5 C1 4.34 1 3.68 1 3 C0.34 2.67 -0.32 2.34 -1 2 C-0.67 1.34 -0.34 0.68 0 0 Z " fill="#25898D" transform="translate(39,316)"/>
<path d="M0 0 C-0.33 2.64 -0.66 5.28 -1 8 C-1.33 8 -1.66 8 -2 8 C-2.33 9.65 -2.66 11.3 -3 13 C-3.33 13 -3.66 13 -4 13 C-4 9.37 -4 5.74 -4 2 C-7.3 2.33 -10.6 2.66 -14 3 C-10.07503936 -0.92496064 -5.24412188 -0.08740203 0 0 Z " fill="#237C7F" transform="translate(59,98)"/>
<path d="M0 0 C0.33 0 0.66 0 1 0 C1.12117188 0.64066406 1.24234375 1.28132813 1.3671875 1.94140625 C2.35679227 7.04928933 3.48510951 12.02250269 5 17 C4.01 17.33 3.02 17.66 2 18 C-0.99415978 11.53261488 -1.18933594 6.99272215 0 0 Z " fill="#22868A" transform="translate(24,286)"/>
<path d="M0 0 C0.91007812 0.00902344 1.82015625 0.01804687 2.7578125 0.02734375 C3.45648438 0.03894531 4.15515625 0.05054687 4.875 0.0625 C4.875 0.3925 4.875 0.7225 4.875 1.0625 C4.18792969 1.17207031 3.50085938 1.28164062 2.79296875 1.39453125 C1.89191406 1.55308594 0.99085937 1.71164063 0.0625 1.875 C-0.83082031 2.02582031 -1.72414063 2.17664063 -2.64453125 2.33203125 C-5.40158173 3.14395005 -6.44573983 3.75351726 -8.125 6.0625 C-8.90856902 8.32643971 -8.90856902 8.32643971 -9.3125 10.75 C-9.47105469 11.55824219 -9.62960938 12.36648437 -9.79296875 13.19921875 C-9.90253906 13.81410156 -10.01210937 14.42898437 -10.125 15.0625 C-10.455 15.0625 -10.785 15.0625 -11.125 15.0625 C-11.75305304 5.92083915 -11.75305304 5.92083915 -9.25 2.5 C-5.88737815 0.22528522 -4.03743414 -0.05176198 0 0 Z " fill="#3A9DA1" transform="translate(78.125,94.9375)"/>
<path d="M0 0 C0.33 0.66 0.66 1.32 1 2 C3.97 2 6.94 2 10 2 C10 2.33 10 2.66 10 3 C2.74 3.66 -4.52 4.32 -12 5 C-12 4.34 -12 3.68 -12 3 C-8.04 2.01 -4.08 1.02 0 0 Z " fill="#4C9B9D" transform="translate(84,10)"/>
<path d="M0 0 C4.10088936 1.50607883 5.53509554 3.96188878 7.75 7.625 C8.36359375 8.62789062 8.9771875 9.63078125 9.609375 10.6640625 C10.06828125 11.43492187 10.5271875 12.20578125 11 13 C10.34 13.66 9.68 14.32 9 15 C7.86863414 13.44210317 6.74517679 11.87846143 5.625 10.3125 C4.99851563 9.44238281 4.37203125 8.57226562 3.7265625 7.67578125 C2.10584157 5.16403048 1.00141912 2.80700813 0 0 Z " fill="#3D9397" transform="translate(147,124)"/>
<path d="M0 0 C-6.79219135 4.17981006 -12.11397658 4.4731614 -20 4 C-20 3.67 -20 3.34 -20 3 C-17.04340215 2.30415424 -14.08512767 1.61801493 -11.125 0.9375 C-10.28324219 0.73833984 -9.44148438 0.53917969 -8.57421875 0.33398438 C-7.76855469 0.15029297 -6.96289062 -0.03339844 -6.1328125 -0.22265625 C-5.38918457 -0.39547119 -4.64555664 -0.56828613 -3.87939453 -0.74633789 C-2 -1 -2 -1 0 0 Z " fill="#499C9F" transform="translate(100,198)"/>
<path d="M0 0 C0.71484375 1.671875 0.71484375 1.671875 1 4 C-0.43359375 6.578125 -0.43359375 6.578125 -2.4375 9.25 C-3.09621094 10.14203125 -3.75492188 11.0340625 -4.43359375 11.953125 C-4.95050781 12.62859375 -5.46742188 13.3040625 -6 14 C-6.71484375 12.328125 -6.71484375 12.328125 -7 10 C-5.56640625 7.421875 -5.56640625 7.421875 -3.5625 4.75 C-2.90378906 3.85796875 -2.24507812 2.9659375 -1.56640625 2.046875 C-1.04949219 1.37140625 -0.53257812 0.6959375 0 0 Z " fill="#3BB6B6" transform="translate(208,135)"/>
<path d="M0 0 C0 3.67034745 -1.0752892 5.0999431 -3 8.1875 C-3.556875 9.08855469 -4.11375 9.98960937 -4.6875 10.91796875 C-5.120625 11.60503906 -5.55375 12.29210937 -6 13 C-6.99 12.34 -7.98 11.68 -9 11 C-7.88037801 9.35050343 -6.75413155 7.70550162 -5.625 6.0625 C-4.99851563 5.14597656 -4.37203125 4.22945312 -3.7265625 3.28515625 C-2 1 -2 1 0 0 Z " fill="#2EB5B6" transform="translate(197,153)"/>
<path d="M0 0 C3.11650396 1.50053894 6.13149298 3.06181958 9 5 C9.33 5.99 9.66 6.98 10 8 C10.66 8.33 11.32 8.66 12 9 C11.34 9 10.68 9 10 9 C9.67 9.66 9.34 10.32 9 11 C7.49703315 9.35687553 5.99769719 7.71042916 4.5 6.0625 C3.6646875 5.14597656 2.829375 4.22945313 1.96875 3.28515625 C0 1 0 1 0 0 Z " fill="#298186" transform="translate(130,104)"/>
<path d="M0 0 C3.77800868 0.53971553 5.71576111 1.95434815 8 5 C7.75 7.75 7.75 7.75 7 10 C4.3513141 6.80331012 2.06007659 3.60513403 0 0 Z " fill="#1D9B9E" transform="translate(122,204)"/>
<path d="M0 0 C0.66 0.33 1.32 0.66 2 1 C-1.63 4.63 -5.26 8.26 -9 12 C-9.33 11.34 -9.66 10.68 -10 10 C-8.90033225 8.70450101 -7.79508199 7.41373929 -6.6875 6.125 C-6.07261719 5.40570313 -5.45773438 4.68640625 -4.82421875 3.9453125 C-3 2 -3 2 0 0 Z " fill="#287F84" transform="translate(39,103)"/>
<path d="M0 0 C7.75 0.75 7.75 0.75 10 3 C7.69 3 5.38 3 3 3 C2.67 5.97 2.34 8.94 2 12 C1.67 12 1.34 12 1 12 C0.67 8.04 0.34 4.08 0 0 Z " fill="#1C7378" transform="translate(115,98)"/>
<path d="M0 0 C3.375 -0.1875 3.375 -0.1875 7 0 C9 3 9 3 8.625 5.1875 C8.41875 5.785625 8.2125 6.38375 8 7 C7.34 5.35 6.68 3.7 6 2 C3.23723823 2.52268466 0.6739124 3.10869587 -2 4 C-1.34 2.68 -0.68 1.36 0 0 Z " fill="#29AFB0" transform="translate(237,195)"/>
<path d="M0 0 C3.63 0.33 7.26 0.66 11 1 C11 1.99 11 2.98 11 4 C10.30132812 3.9278125 9.60265625 3.855625 8.8828125 3.78125 C7.97273438 3.6884375 7.06265625 3.595625 6.125 3.5 C5.22007813 3.4071875 4.31515625 3.314375 3.3828125 3.21875 C1.06686789 2.96952705 1.06686789 2.96952705 -1 3 C-0.67 2.01 -0.34 1.02 0 0 Z " fill="#369194" transform="translate(114,96)"/>
<path d="M0 0 C0.66 0.33 1.32 0.66 2 1 C1.67 4.96 1.34 8.92 1 13 C0.34 13 -0.32 13 -1 13 C-0.67 8.71 -0.34 4.42 0 0 Z " fill="#2D979C" transform="translate(122,45)"/>
<path d="M0 0 C2.97 0 5.94 0 9 0 C9 0.66 9 1.32 9 2 C6.04335481 3.4783226 3.25770263 3.06032783 0 3 C0 2.01 0 1.02 0 0 Z " fill="#0F8689" transform="translate(63,325)"/>
<path d="M0 0 C3 1 3 1 4.75 3.9375 C5.1625 4.948125 5.575 5.95875 6 7 C5.67 7.66 5.34 8.32 5 9 C3.02 7.02 1.04 5.04 -1 3 C-0.67 2.01 -0.34 1.02 0 0 Z " fill="#2DB9B6" transform="translate(288,117)"/>
<path d="M0 0 C5.03985731 0.44469329 7.37634988 2.71343362 11 6 C10.34 6.66 9.68 7.32 9 8 C7.49712782 6.85793642 5.99776716 5.71125043 4.5 4.5625 C3.6646875 3.92441406 2.829375 3.28632812 1.96875 2.62890625 C1.3190625 2.09136719 0.669375 1.55382812 0 1 C0 0.67 0 0.34 0 0 Z " fill="#3D8D90" transform="translate(126,100)"/>
<path d="M0 0 C0.99 0 1.98 0 3 0 C4.60546875 2.1171875 4.60546875 2.1171875 6.1875 4.875 C6.71730469 5.77992187 7.24710937 6.68484375 7.79296875 7.6171875 C9 10 9 10 9 12 C8.34 12 7.68 12 7 12 C5.52734375 9.8828125 5.52734375 9.8828125 3.9375 7.125 C3.41027344 6.22007813 2.88304687 5.31515625 2.33984375 4.3828125 C1.52814832 2.93927252 0.74062907 1.48125815 0 0 Z " fill="#37B6B5" transform="translate(279,41)"/>
<path d="M0 0 C5.95108696 5.75271739 5.95108696 5.75271739 6.125 10.1875 C6.08375 11.115625 6.0425 12.04375 6 13 C2.55378451 9.55378451 0.94849247 4.74246236 0 0 Z " fill="#369297" transform="translate(100,167)"/>
<path d="M0 0 C3.2542015 2.83430453 4.5206753 4.68607774 5 9 C2 8 2 8 0 5 C-0.125 2.3125 -0.125 2.3125 0 0 Z " fill="#269BA1" transform="translate(132,215)"/>
<path d="M0 0 C3 2 3 2 3.6875 3.625 C4.14471421 7.099828 4.05840231 10.49586168 4 14 C2.30566082 10.9530371 1.50532888 8.17178534 0.875 4.75 C0.70742188 3.85796875 0.53984375 2.9659375 0.3671875 2.046875 C0.18542969 1.03367188 0.18542969 1.03367188 0 0 Z " fill="#3AB8B5" transform="translate(305,143)"/>
<path d="M0 0 C0.66 0 1.32 0 2 0 C1.71125 0.70125 1.4225 1.4025 1.125 2.125 C-0.02133588 5.05452503 -1.02625654 8.00921653 -2 11 C-2.66 11 -3.32 11 -4 11 C-3.49357808 6.64477147 -2.61588503 3.55760365 0 0 Z " fill="#37BAB8" transform="translate(228,46)"/>
<path d="M0 0 C0.66 0 1.32 0 2 0 C2 3.3 2 6.6 2 10 C1.34 10 0.68 10 0 10 C-0.19412181 8.52168779 -0.38012131 7.04230684 -0.5625 5.5625 C-0.66691406 4.73878906 -0.77132812 3.91507813 -0.87890625 3.06640625 C-0.91886719 2.38449219 -0.95882812 1.70257813 -1 1 C-0.67 0.67 -0.34 0.34 0 0 Z " fill="#468E91" transform="translate(90,153)"/>
<path d="M0 0 C2.97 0.495 2.97 0.495 6 1 C5.67 5.29 5.34 9.58 5 14 C4.67 14 4.34 14 4 14 C3.96261719 13.24074219 3.92523438 12.48148438 3.88671875 11.69921875 C3.82097656 10.70535156 3.75523438 9.71148437 3.6875 8.6875 C3.62949219 7.70136719 3.57148437 6.71523437 3.51171875 5.69921875 C2.95377187 2.75615543 2.31459868 1.81817001 0 0 Z " fill="#227A7E" transform="translate(76,148)"/>
<path d="M0 0 C2.81939117 2.20979308 5.53058944 4.40062046 8 7 C6.68 7.33 5.36 7.66 4 8 C4 7.34 4 6.68 4 6 C3.01 5.67 2.02 5.34 1 5 C1 4.34 1 3.68 1 3 C0.34 2.67 -0.32 2.34 -1 2 C-0.67 1.34 -0.34 0.68 0 0 Z " fill="#2C8B90" transform="translate(79,133)"/>
<path d="M0 0 C1.32 0.33 2.64 0.66 4 1 C2.35 2.65 0.7 4.3 -1 6 C-1.99 5.67 -2.98 5.34 -4 5 C-3.67 4.34 -3.34 3.68 -3 3 C-2.34 3 -1.68 3 -1 3 C-0.67 2.01 -0.34 1.02 0 0 Z " fill="#30C0BE" transform="translate(235,37)"/>
<path d="M0 0 C0.99 0.33 1.98 0.66 3 1 C1.37660195 2.70884005 -0.29319053 4.37446717 -2 6 C-2.66 6 -3.32 6 -4 6 C-2.84826645 3.53199953 -1.95216435 1.95216435 0 0 Z " fill="#1F9FA3" transform="translate(209,236)"/>
<path d="M0 0 C4.92307692 4.30769231 4.92307692 4.30769231 5.3125 7.8125 C5.209375 8.534375 5.10625 9.25625 5 10 C2.08772731 6.71195019 0.50298788 4.40114397 0 0 Z " fill="#3EB9B7" transform="translate(300,132)"/>
<path d="M0 0 C0.66 1.32 1.32 2.64 2 4 C0.35 5.65 -1.3 7.3 -3 9 C-3.33 8.01 -3.66 7.02 -4 6 C-2.0625 2.8125 -2.0625 2.8125 0 0 Z " fill="#22AFAC" transform="translate(283,79)"/>
<path d="M0 0 C4 4.625 4 4.625 4 8 C1 7 1 7 -1 4 C-0.625 1.8125 -0.625 1.8125 0 0 Z " fill="#1FADAC" transform="translate(227,76)"/>
<path d="M0 0 C1.98 0.495 1.98 0.495 4 1 C3.34 3.31 2.68 5.62 2 8 C1 6 0 4 -1 2 C-0.67 1.34 -0.34 0.68 0 0 Z " fill="#22959A" transform="translate(109,196)"/>
<path d="M0 0 C0.33 0 0.66 0 1 0 C2.23076923 6.4 2.23076923 6.4 1.0625 9.4375 C0.711875 9.953125 0.36125 10.46875 0 11 C-0.66 11 -1.32 11 -2 11 C-1.34 7.37 -0.68 3.74 0 0 Z " fill="#1DB0AF" transform="translate(287,66)"/>
<path d="M0 0 C0.99 0.99 1.98 1.98 3 3 C3.66 2.67 4.32 2.34 5 2 C5.625 3.875 5.625 3.875 6 6 C5.34 6.66 4.68 7.32 4 8 C2.35 6.02 0.7 4.04 -1 2 C-0.67 1.34 -0.34 0.68 0 0 Z " fill="#1D898D" transform="translate(163,150)"/>
<path d="M0 0 C0.99 0 1.98 0 3 0 C1.70700306 2.88437779 0.34058637 4.87219421 -2 7 C-2.33 6.01 -2.66 5.02 -3 4 C-1.75 1.8125 -1.75 1.8125 0 0 Z " fill="#36C0BF" transform="translate(211,130)"/>
<path d="M0 0 C0.99 0 1.98 0 3 0 C2.625 2.4375 2.625 2.4375 2 5 C1.01 5.495 1.01 5.495 0 6 C-0.38218767 4.34385343 -0.71395102 2.67542976 -1 1 C-0.67 0.67 -0.34 0.34 0 0 Z " fill="#23788B" transform="translate(110,123)"/>
<path d="M0 0 C2.475 0.99 2.475 0.99 5 2 C5 3.32 5 4.64 5 6 C4.01 5.67 3.02 5.34 2 5 C0.8125 2.4375 0.8125 2.4375 0 0 Z " fill="#2A98A0" transform="translate(155,252)"/>
<path d="M0 0 C0.99 0.66 1.98 1.32 3 2 C1.625 4 1.625 4 0 6 C-0.66 6 -1.32 6 -2 6 C-1.125 1.125 -1.125 1.125 0 0 Z " fill="#1EA2A5" transform="translate(215,226)"/>
<path d="M0 0 C2.62187494 1.04874998 3.79371361 1.64931313 5.25 4.125 C5.4975 4.74375 5.745 5.3625 6 6 C3 6 3 6 1.3125 4.6875 C0 3 0 3 0 0 Z " fill="#209A9D" transform="translate(118,196)"/>
<path d="M0 0 C2.04119788 1.61594832 4.04072937 3.2856382 6 5 C6 5.66 6 6.32 6 7 C3.11562221 5.70700306 1.12780579 4.34058637 -1 2 C-0.67 1.34 -0.34 0.68 0 0 Z " fill="#3B9397" transform="translate(70,193)"/>
<path d="M0 0 C3 1 3 1 4.1875 3.0625 C4.455625 3.701875 4.72375 4.34125 5 5 C4.34 5 3.68 5 3 5 C2.67 5.66 2.34 6.32 2 7 C0.5393715 4.35261084 0 3.10551666 0 0 Z " fill="#29979A" transform="translate(168,156)"/>
<path d="M0 0 C1.485 0.99 1.485 0.99 3 2 C3.29296875 4.1640625 3.29296875 4.1640625 3.1875 6.625 C3.16042969 7.44226562 3.13335937 8.25953125 3.10546875 9.1015625 C3.07066406 9.72804688 3.03585938 10.35453125 3 11 C2.67 11 2.34 11 2 11 C1.34 7.37 0.68 3.74 0 0 Z " fill="#3D9498" transform="translate(119,33)"/>
</svg>
